<svg xmlns="http://www.w3.org/2000/svg" viewBox="0 0 64 64" width="64" height="64">
  <path d="M32,53.08a21,21,0,1,0-21-21A21,21,0,0,0,32,53.08ZM38,38H36V36h2ZM26,26h2v2H26Zm-5.63-5A5,5,0,0,1,24,25.77V30h6V20h9.34a4,4,0,0,0,2.83-1.17L44,17l-1,3.37A5,5,0,0,1,38.23,24H34v6H44v9.34a4,4,0,0,0,1.17,2.83L47,44l-3.37-1A5,5,0,0,1,40,38.23V34H34V44H24.66a4,4,0,0,0-2.83,1.17L20,47l1-3.37A5,5,0,0,1,25.77,40H30V34H20V24.66a4,4,0,0,0-1.17-2.83L17,20ZM38,26v2H36V26ZM26,38V36h2v2Z"/>
  <path d="M32,3.08a29,29,0,1,0,29,29A29,29,0,0,0,32,3.08ZM58.91,29.91l-2,.16c-.05-.64-.13-1.28-.23-1.91l2-.31C58.78,28.53,58.86,29.22,58.91,29.91Zm-.64-4.08-1.94.46c-.15-.62-.33-1.24-.52-1.85l1.91-.61C57.93,24.48,58.11,25.15,58.27,25.83ZM57,21.89l-1.85.76c-.24-.59-.51-1.18-.79-1.75L56.16,20C56.46,20.62,56.75,21.26,57,21.89ZM55.16,18.2l-1.71,1c-.33-.55-.68-1.09-1.05-1.6L54,16.47C54.43,17,54.81,17.61,55.16,18.2Zm-3.77-4.91c.48.5.94,1,1.38,1.54l-1.54,1.28c-.4-.49-.83-1-1.28-1.43ZM48.3,10.55c.54.42,1.08.86,1.59,1.31l-1.32,1.5c-.48-.42-1-.83-1.48-1.21ZM44.82,8.32c.6.32,1.2.68,1.78,1l-1.08,1.68c-.54-.35-1.09-.67-1.65-1ZM41,6.63c.65.24,1.3.49,1.92.77l-.81,1.83c-.58-.26-1.18-.5-1.78-.71Zm-4-1.07c.68.12,1.35.28,2,.46L38.55,8c-.62-.17-1.25-.31-1.87-.43ZM33,5.1c.68,0,1.38.07,2.06.15l-.22,2c-.63-.07-1.27-.12-1.91-.14Zm22,27a23,23,0,1,1-23-23A23,23,0,0,1,55,32.08Zm-24.12-27,.08,2c-.63,0-1.28.08-1.91.15l-.23-2C29.5,5.19,30.19,5.13,30.88,5.11Zm-4.1.48.38,2c-.62.12-1.25.27-1.86.44l-.53-1.93C25.43,5.88,26.11,5.72,26.78,5.59Zm-4,1.1.68,1.88q-.9.33-1.77.72l-.83-1.82Q21.83,7.05,22.8,6.69ZM19,8.39l1,1.76c-.56.3-1.11.63-1.64,1l-1.1-1.67C17.84,9.08,18.44,8.72,19,8.39Zm-3.46,2.26,1.22,1.59c-.51.39-1,.8-1.48,1.22L14,12C14.49,11.52,15,11.07,15.58,10.65ZM12.5,13.41,14,14.79c-.44.46-.87.94-1.28,1.43L11.13,15C11.56,14.42,12,13.9,12.5,13.41ZM9.88,16.6l1.64,1.15c-.37.52-.72,1.06-1,1.61l-1.72-1C9.11,17.75,9.49,17.16,9.88,16.6ZM7.77,20.16,9.56,21c-.28.57-.54,1.16-.78,1.75l-1.85-.74C7.18,21.41,7.47,20.77,7.77,20.16ZM6.23,24l1.91.59c-.19.61-.36,1.23-.5,1.85L5.69,26C5.84,25.32,6,24.65,6.23,24ZM5.3,28l2,.3c-.09.63-.17,1.27-.21,1.9l-2-.14C5.12,29.39,5.2,28.7,5.3,28ZM5,32.14H7c0,.63,0,1.27.08,1.91l-2,.15C5,33.52,5,32.82,5,32.14Zm.32,4.12,2-.31c.09.63.22,1.26.36,1.88l-1.94.46C5.56,37.62,5.43,36.93,5.32,36.26Zm.95,4,1.9-.61c.2.61.42,1.22.65,1.8L7,42.23C6.71,41.59,6.48,40.94,6.27,40.28Zm1.55,3.83,1.79-.89c.28.56.59,1.13.92,1.67l-1.72,1C8.46,45.33,8.12,44.72,7.82,44.11Zm3.37,5.18c-.43-.53-.86-1.08-1.25-1.64l1.63-1.15c.37.52.76,1,1.16,1.52Zm2.87,3c-.51-.45-1-.93-1.49-1.43L14,49.44c.44.46.91.91,1.38,1.33Zm3.29,2.51c-.58-.38-1.14-.78-1.69-1.19L16.87,52c.51.38,1,.75,1.57,1.1Zm3.63,2c-.63-.28-1.25-.59-1.85-.92l.95-1.75c.56.3,1.14.59,1.72.85Zm3.9,1.39c-.66-.18-1.33-.38-2-.62l
    1.08-1.68c.65.24,1.3,.49,1.95,.75Zm4.12,.48c-.68-.12-1.35-.28-2-.46l1.54-1.28c.65,.18,1.3,.36,1.94,.53Zm4.1,.15c-.68,0-1.38-.07-2.06-.15l.22-2c.64,.07,1.28,.12,1.91,.14Zm4.1-.48c-.68,0-1.38-.07-2.06-.15l.23,2c.63,.07,1.27,.12,1.91,.14Zm4.1-.63c-.68,0-1.38-.07-2.06-.15l.53,1.93c.63,.17,1.27,.31,1.91,.43Zm4.1-.93c-.68,0-1.38-.07-2.06-.15l.83,1.82c.68,.12,1.35,.28,2,.46Zm4.1-1.26c-.68,0-1.38-.07-2.06-.15l1.1,1.67c.68,.12,1.35,.28,2,.46Zm4.1-1.63c-.68,0-1.38-.07-2.06-.15l1.32,1.5c.68,.12,1.35,.28,2,.46Zm4.1-2c-.68,0-1.38-.07-2.06-.15l1.54,1.28c.68,.12,1.35,.28,2,.46Zm4.1-2.37c-.68,0-1.38-.07-2.06-.15l1.71,1c.68,.12,1.35,.28,2,.46Zm4.1-2.74c-.68,0-1.38-.07-2.06-.15l1.85,.76c.68,.12,1.35,.28,2,.46Z m4.1-3.11c-.68,0-1.38-.07-2.06-.15l2,.3c.68,.1,1.38,.15,2.06,.15Z"/> 
</svg>