<svg xmlns="http://www.w3.org/2000/svg" viewBox="0 0 64 64" width="64" height="64">
  <g data-name="Glyph">
    <path d="M32,2A30,30,0,1,0,62,32,30.037,30.037,0,0,0,32,2Zm0,54A24,24,0,1,1,56,32,24.032,24.032,0,0,1,32,56Z"/>
    <circle cx="38" cy="26" r="1"/>
    <circle cx="38" cy="38" r="1"/>
    <circle cx="26" cy="26" r="1"/>
    <circle cx="26" cy="38" r="1"/>
    <path d="M48,17a1,1,0,0,0-1-1H33.67a5.454,5.454,0,0,0-5.45,5.44v6.78H23.56V22.56A6.564,6.564,0,0,0,17,16a1,1,0,0,0-1,1V30.33a5.454,5.454,0,0,0,5.44,5.45h6.78v4.66H22.56A6.564,6.564,0,0,0,16,47a1,1,0,0,0,1,1H30.33a5.454,5.454,0,0,0,5.45-5.44V35.78h4.66v5.66A6.564,6.564,0,0,0,47,48a1,1,0,0,0,1-1V33.67a5.454,5.454,0,0,0-5.44-5.45H35.78V23.56h5.66A6.564,6.564,0,0,0,48,17Z"/>
  </g>
</svg>
